<?xml version="1.0" standalone="yes"?>
<svg xmlns="http://www.w3.org/2000/svg" width="453" height="470">
<path style="fill:#353b41; stroke:none;" d="M0 0L0 470L453 470L453 0L0 0z"/>
<path style="fill:#ededed; stroke:none;" d="M139 99C136.627 97.9877 134.551 97.3784 132 97C131.175 100.566 130.271 106.963 126.722 108.883C122.592 111.116 114.555 108.196 110 108C110.566 111.188 112.776 114.769 112.47 118C112.176 121.111 109.53 123.395 108.084 126C105.968 129.814 105.73 134.386 102.606 137.66C99.4701 140.945 93.6076 141.728 91.7469 146.185C88.501 153.96 98.9098 161.055 105 163C103.7 168.744 105.34 172.053 111 174C108.426 180.671 103.711 188.858 103.228 196C102.894 200.951 106.212 205.171 106.815 210C107.354 214.314 106.544 218.728 107.529 223C108.591 227.6 111.772 231.362 112.66 236C113.684 241.351 112.328 246.841 114.653 252C117.949 259.318 127.578 268.273 134 273C134.802 269.632 134.99 266.455 135 263C141.314 266.649 146.076 272.826 153 275.438C158.413 277.479 164.327 277 170 277L196 277C201.833 277 208.494 277.672 213.996 275.297C222.262 271.729 223.209 259.519 233.001 258.228C246.655 256.429 249.69 275.81 263 276.907C272.875 277.721 283.092 277 293 277C298.443 277 304.744 277.845 310 276.196C317.968 273.697 319.954 262.26 328 262C328.04 247.91 341.376 242.066 343.671 229C344.733 222.958 344.931 215.125 344.74 209C344.635 205.619 343.452 202.418 343.84 199C344.711 191.31 350.099 184.921 349.966 177C349.877 171.665 345.562 168.884 344.698 164C344.164 160.98 345.818 157.877 346.497 155C347.583 150.4 348.125 145.646 349 141C340.851 137.115 335.488 131.877 331 124C335.088 123.015 339.1 122.646 343 121C339.526 116.808 335.091 114.736 330 113C331.72 109.77 333.034 106.532 334 103C325.766 98.416 316.259 93.1077 310 86C315.366 83.915 322.15 81.9307 324 76C316.625 75.0679 309.436 75.0005 302 75C298.058 74.9998 293.581 75.5346 290.189 73.1065C286.258 70.2918 285.37 65.492 285 61C278.767 61.1294 272.923 62.8157 267 64.6589C264.001 65.5923 260.149 67.273 257.225 65.3063C253.536 62.8262 252.828 57.0027 252 53C246.334 55.4447 241.56 59.3697 236 62C235.089 53.8917 228.38 53.8148 222 50.9599C217.408 48.9052 213.92 46.0572 211 42C198.837 44.1951 188.323 54.701 178 60.8557C171.723 64.598 162.947 64.3996 156.09 67.5594C153.517 68.7448 151.927 71.0061 149.91 72.8958C147.676 74.9903 143.96 76.1394 142.175 78.5594C138.853 83.0619 139.112 93.5645 139 99z"/>
<path style="fill:#353b41; stroke:none;" d="M139 244C146.57 243.398 153.533 240.367 161 239.3C167.824 238.325 175.116 239 182 239C189.896 239 198.146 238.32 206 239.174C214.127 240.057 218.888 245.576 226 248.633C231.659 251.065 239.19 250.207 245 248.646C251.659 246.857 256.857 241.437 262 237.145C273.74 227.348 300.689 215.33 312 231C300.707 231 289.872 231.614 279 234.976C274.732 236.296 270.411 237.016 268 241C272.357 241.09 276.642 242.096 281 241.957C288.992 241.702 296.95 240.208 305 241.184C309.5 241.73 313.659 243.815 318 245C319.719 236.665 320.939 229.261 317.907 221C316.248 216.482 313.125 212.648 311.789 208C310.662 204.076 311.213 200.011 310.83 196C309.969 186.986 307.752 177.057 301.671 170.04C293.88 161.049 281.854 157.858 271 154.33C265.234 152.456 259.033 149.916 253 149.184C237.481 147.302 223.786 152.331 209 155.765C201.725 157.454 193.993 157.991 187 160.761C181.293 163.021 176.467 166.99 171 169.73C166.194 172.139 161.18 173.79 157.015 177.329C148.384 184.661 147.112 195.324 148.104 206C148.383 209.001 149.903 211.962 149.502 215C148.874 219.764 144.859 223.735 142.901 228C140.551 233.121 140.019 238.533 139 244M211 248L212 245C200.83 240.449 189.871 241 178 241C171.316 241 164.265 240.751 158.004 243.532C147.574 248.165 145.685 266.587 156.094 272.558C160.58 275.131 166.01 274.998 171 275L195 275C199.458 275 204.776 275.747 208.985 273.991C218.705 269.935 219.559 253.404 211 248M263.004 243.858C251.95 248.395 251.483 266.757 261.093 272.991C264.916 275.47 269.655 275 274 275L296 275C299.741 275 304.417 275.7 307.956 274.258C309.954 273.443 311.443 271.954 312.258 269.956C314.498 264.458 314.676 248.776 309.606 244.858C306.465 242.431 301.716 243.001 298 243L275 243C271.171 243 266.625 242.372 263.004 243.858z"/>
<path style="fill:#ededed; stroke:none;" d="M159 249C163.645 250.949 169.053 249.584 174 250.184C179.149 250.809 183.789 253.599 189 253.892C196.182 254.296 203.31 251.177 210 249C201.753 239.413 190.178 246.594 180 247.816C172.969 248.66 165.963 247.342 159 249M249 340C257.808 340 269.69 337.933 278 341.147C282.726 342.976 286.054 347.012 290 350C289.995 342.119 288.633 334.515 280 331.804C276.456 330.691 272.639 331.128 269 330.561C264.385 329.842 249.973 325.786 247.708 332.279C246.891 334.621 248.403 337.738 249 340M189 349C192.926 346.246 196.309 342.123 201 340.653C210.964 337.529 222.711 339.456 233 337C225.094 327.81 211.262 331.608 201 333.789C197.749 334.481 192.145 334.544 190.028 337.514C188.013 340.34 189 345.705 189 349M203 352L203 354C207.632 353.997 212.411 353.114 217 353.63C223.036 354.308 228.915 356.711 235 356.871C241.215 357.034 247.909 355.148 254 354C247.536 351.287 240.663 354.764 234 354.541C228.566 354.359 223.378 351.99 218 351.289C212.907 350.626 208.05 351.601 203 352M257 351C260.603 353.461 264.757 353 269 353C265.397 350.539 261.243 351 257 351M309 362C305.458 366.96 302.354 372.375 300 378C297.164 375.963 295.125 373.772 293 371C286.49 380.368 289.454 394.542 278.907 402.146C271.074 407.793 257.165 405.775 248 406.015C242.799 406.15 238.127 408.333 233 408.823C227.942 409.306 222.997 407.653 218 407.17C213.713 406.755 209.185 407.571 205 406.362C195.202 403.53 188.451 393.848 188 384C184.638 384.335 181.368 385.766 178 385.802C173.751 385.849 169.824 383.568 166 382C167.976 389.038 175.009 393.665 179.715 399C187.036 407.301 194.774 415.921 205 420.676C218.456 426.932 236.509 424.023 251 424C257.991 423.989 266.689 423.88 273 420.597C280.329 416.785 285.117 409.513 289.848 403C296.177 394.286 302.008 384.9 306.279 375C308.013 370.983 310.53 366.313 309 362M218 374C223.014 379.491 228.007 383.506 232 390C235.288 389.103 238.567 387.473 242 387.275C244.546 387.128 247.316 388.215 249.776 387.218C252.662 386.05 253.595 382.491 255.557 380.328C258.5 377.084 262.68 375.796 265 372C255.824 372.725 247.065 377.141 238 377.529C231.284 377.817 224.677 374.545 218 374z"/>
</svg>
