<?xml version="1.0" encoding="UTF-8" standalone="no"?>
<!DOCTYPE svg PUBLIC "-//W3C//DTD SVG 1.1//EN" "http://www.w3.org/Graphics/SVG/1.1/DTD/svg11.dtd">
<svg version="1.1" xmlns="http://www.w3.org/2000/svg" xmlns:xlink="http://www.w3.org/1999/xlink" preserveAspectRatio="xMidYMid meet" viewBox="58.09523809523792 48.571428571428356 541.1999999999999 500" width="541.2" height="500"><defs><path d="M58.1 48.57L599.3 48.57L599.3 548.57L58.1 548.57L58.1 48.57Z" id="b32bn4OTxz"></path><path d="M113.65 299.37L350.16 299.37L350.16 318.41L113.65 318.41L113.65 299.37Z" id="aivAC2i0H"></path><path d="M113.65 252.7L350.16 252.7L350.16 271.75L113.65 271.75L113.65 252.7Z" id="a250KoEWls"></path><path d="M113.65 209.84L350.16 209.84L350.16 228.89L113.65 228.89L113.65 209.84Z" id="arRKjZZHo"></path><path d="M113.65 163.17L350.16 163.17L350.16 182.22L113.65 182.22L113.65 163.17Z" id="aiJVEASYV"></path><path d="M113.65 478.1L550.16 478.1L550.16 497.14L113.65 497.14L113.65 478.1Z" id="e2fgzpsFcC"></path><path d="M113.65 431.43L550.16 431.43L550.16 450.48L113.65 450.48L113.65 431.43Z" id="f4eIanTzRb"></path><path d="M113.65 388.57L550.16 388.57L550.16 407.62L113.65 407.62L113.65 388.57Z" id="a3d5U9RUH"></path><path d="M113.65 341.9L550.16 341.9L550.16 360.95L113.65 360.95L113.65 341.9Z" id="hCEItbEqx"></path><path d="M377.14 318.41L377.14 163.17L550.16 163.17L550.16 318.41L377.14 318.41ZM398.77 299.01L431.21 269.9L452.84 279.6L485.28 240.79L528.53 292.54L528.53 182.58L398.77 182.58L398.77 299.01ZM438.17 204.47L438.93 204.54L439.69 204.63L440.43 204.75L441.16 204.9L441.89 205.08L442.6 205.28L443.3 205.5L443.98 205.74L444.66 206.01L445.31 206.3L445.96 206.62L446.59 206.95L447.2 207.31L447.79 207.69L448.37 208.08L448.93 208.5L449.47 208.93L450 209.38L450.5 209.85L450.99 210.34L451.45 210.84L451.89 211.36L452.31 211.9L452.71 212.44L453.08 213.01L453.43 213.59L453.75 214.18L454.05 214.78L454.33 215.4L454.58 216.02L454.8 216.66L454.99 217.31L455.16 217.97L455.29 218.63L455.4 219.31L455.48 220L455.52 220.69L455.54 221.39L455.52 222.09L455.48 222.78L455.4 223.47L455.29 224.14L455.16 224.81L454.99 225.47L454.8 226.12L454.58 226.76L454.33 227.38L454.05 228L453.75 228.6L453.43 229.19L453.08 229.77L452.71 230.33L452.31 230.88L451.89 231.42L451.45 231.94L450.99 232.44L450.5 232.93L450 233.39L449.47 233.85L448.93 234.28L448.37 234.7L447.79 235.09L447.2 235.47L446.59 235.82L445.96 236.16L445.31 236.47L444.66 236.76L443.98 237.03L443.3 237.28L442.6 237.5L441.89 237.7L441.16 237.87L440.43 238.02L439.69 238.15L438.93 238.24L438.17 238.31L437.4 238.35L436.62 238.37L435.84 238.35L435.07 238.31L434.3 238.24L433.55 238.15L432.8 238.02L432.07 237.87L431.35 237.7L430.64 237.5L429.94 237.28L429.25 237.03L428.58 236.76L427.92 236.47L427.28 236.16L426.65 235.82L426.04 235.47L425.44 235.09L424.86 234.7L424.3 234.28L423.76 233.85L423.24 233.39L422.73 232.93L422.25 232.44L421.79 231.94L421.34 231.42L420.93 230.88L420.53 230.33L420.16 229.77L419.81 229.19L419.48 228.6L419.18 228L418.91 227.38L418.66 226.76L418.44 226.12L418.24 225.47L418.08 224.81L417.94 224.14L417.83 223.47L417.76 222.78L417.71 222.09L417.69 221.39L417.71 220.69L417.76 220L417.83 219.31L417.94 218.63L418.08 217.97L418.24 217.31L418.44 216.66L418.66 216.02L418.91 215.4L419.18 214.78L419.48 214.18L419.81 213.59L420.16 213.01L420.53 212.44L420.93 211.9L421.34 211.36L421.79 210.84L422.25 210.34L422.73 209.85L423.24 209.38L423.76 208.93L424.3 208.5L424.86 208.08L425.44 207.69L426.04 207.31L426.65 206.95L427.28 206.62L427.92 206.3L428.58 206.01L429.25 205.74L429.94 205.5L430.64 205.28L431.35 205.08L432.07 204.9L432.8 204.75L433.55 204.63L434.3 204.54L435.07 204.47L435.84 204.42L436.62 204.41L437.4 204.42L438.17 204.47Z" id="i4TklVvQl"></path><path d="M113.65 70.79L550.16 70.79L550.16 134.29L113.65 134.29L113.65 70.79Z" id="bZFmQFwot"></path></defs><g><g><g><use xlink:href="#b32bn4OTxz" opacity="1" fill="#000000" fill-opacity="1"></use></g><g><g><g><g><use xlink:href="#aivAC2i0H" opacity="1" fill="#ffffff" fill-opacity="1"></use></g><g><use xlink:href="#a250KoEWls" opacity="1" fill="#ffffff" fill-opacity="1"></use></g></g><g><g><use xlink:href="#arRKjZZHo" opacity="1" fill="#ffffff" fill-opacity="1"></use></g><g><use xlink:href="#aiJVEASYV" opacity="1" fill="#ffffff" fill-opacity="1"></use></g></g></g><g><g><g><use xlink:href="#e2fgzpsFcC" opacity="1" fill="#ffffff" fill-opacity="1"></use></g><g><use xlink:href="#f4eIanTzRb" opacity="1" fill="#ffffff" fill-opacity="1"></use></g></g><g><g><use xlink:href="#a3d5U9RUH" opacity="1" fill="#ffffff" fill-opacity="1"></use></g><g><use xlink:href="#hCEItbEqx" opacity="1" fill="#ffffff" fill-opacity="1"></use></g></g></g><g><use xlink:href="#i4TklVvQl" opacity="1" fill="#ffffff" fill-opacity="1"></use></g></g><g><use xlink:href="#bZFmQFwot" opacity="1" fill="#ffffff" fill-opacity="1"></use></g></g></g></svg>