<?xml version="1.0" standalone="yes"?>
<svg xmlns="http://www.w3.org/2000/svg" width="447" height="464">
<path style="fill:#010101; stroke:none;" d="M0 0L0 464L447 464L447 0L0 0z"/>
<path style="fill:#ffffff; stroke:none;" d="M145 51C141.317 56.5594 139.177 60.767 132 61C131.853 68.0947 130.001 74.8372 130 82L124 79C122.33 83.5396 120.586 88.1931 120 93C114.18 90.879 108.111 90.7723 102 90C103.267 93.4868 106.711 98.0046 105.354 101.857C104.394 104.583 101.204 105.319 100.303 108.143C98.9535 112.378 99.2326 116.254 95.6597 119.581C92.794 122.25 86.9954 122.276 85.3889 126.144C82.392 133.361 92.6451 140.771 98 143C95.52 148.97 97.7833 151.793 104 153C101.89 157.479 100.838 161.41 99.1613 166C98.1757 168.698 96.2 171.054 95.9336 174C95.5643 178.086 98.9476 181.15 99.7222 185C100.586 189.291 98.9871 193.659 99.794 197.91C100.696 202.661 104.215 206.443 105.443 211.039C106.836 216.251 104.319 223.015 107.024 227.791C108.252 229.958 110.613 231.373 112.255 233.208C116.637 238.104 121.023 242.783 125 248C126.081 244.343 126 240.801 126 237C132.218 240.358 136.676 247.322 143.093 250.006C148.336 252.199 154.503 251.025 160 251.001L184 251.001C188.506 250.979 193.636 251.67 198 250.351C207.054 247.615 206.369 238.133 213.224 234.028C215.427 232.709 218.531 232.917 220.999 233.019C231.013 233.434 231.674 245.998 240.005 249.86C245.49 252.403 253.153 251.266 259 251.039C265.681 250.778 272.331 251.435 279 251.4C283.456 251.377 287.938 251.923 291.96 249.49C297.172 246.336 299.717 239.885 303 235C304.001 236.924 304.078 237.098 306 238C306.003 233.814 305.875 229.814 307.92 226.015C312.242 217.984 320.275 213.902 321.412 204C321.688 201.601 320.592 199.386 320.715 197C320.925 192.917 322.244 189.25 321.946 185.039C321.754 182.324 320.21 179.685 320.603 176.961C321.713 169.251 327.84 162.324 327.307 154.015C327.033 149.735 322.013 148.071 321.252 143.985C320.73 141.186 322.746 138.618 323.386 136C324.514 131.385 324.769 126.655 326 122L325 121C317.798 120.864 311.847 110.35 308 105C312.602 104.796 317.028 104.484 321 102C316.855 99.0566 312.918 96.42 308 95L312 86C307.341 83.5157 303.438 80.2027 299 77.3974C294.813 74.7508 291.43 73.535 289 69C294.072 67.8114 298.625 64.7879 303 62L303 60C296.132 57.9698 288.131 59.0005 281 59C277.571 58.9998 273.162 59.6611 270.275 57.3966C266.612 54.5242 266.1 49.2769 266 45C259.621 45.4056 253.084 47.8749 247.015 49.8457C244.4 50.6946 241.094 51.9819 238.848 49.6057C236.667 47.2988 236.275 41.0616 235 38C229.415 40.191 225.575 44.8402 220 47C219.976 45.0098 220.31 42.2796 218.972 40.6018C217.424 38.66 214.154 38.9611 212 38.162C205.63 35.7995 199.525 32.9548 196 27C192.133 28.4696 189.332 30.994 185.83 33.0995C182.387 35.1701 178.572 36.3167 175.285 38.6991C171.362 41.5428 167.627 45.7405 163 47.429C160.656 48.2843 158.419 47.3129 156.09 47.8326C151.325 48.8956 150.409 52.5733 145 51z"/>
<path style="fill:#010101; stroke:none;" d="M130 220C136.643 219.457 142.501 216.334 149 215.259C155.099 214.251 161.829 215 168 215C175.912 215 184.121 214.372 192 215.104C195.325 215.413 199.809 216.305 202.715 218.008C205.723 219.772 207.676 222.791 211.001 224.142C215.388 225.925 222.686 225.488 227.285 224.54C237.436 222.447 243.653 210.955 253 207.019C263.504 202.595 285.098 193.714 292 207C280.832 207 271.725 207.868 261 211.116C256.772 212.396 252.491 213.211 249 216C260.971 219.537 274.703 215.338 287 217.213C290.539 217.753 293.731 219.641 297 221C298.589 214.346 299.507 205.627 297.298 199C295.767 194.406 292.363 190.698 290.905 186C289.479 181.403 290.398 176.696 289.871 172C288.948 163.778 286.388 154.446 280.522 148.326C273.239 140.728 261.771 136.982 252 134.127C245.812 132.319 239.464 129.705 233 129.104C221.113 127.999 210.337 131.506 199.09 134.628C191.297 136.791 182.509 137.416 175 140.272C170.863 141.846 167.739 144.783 164 147.021C157.875 150.686 150.52 152.284 145.326 157.444C138.117 164.604 136.847 174.283 138.209 184C138.627 186.983 140.284 189.93 139.83 192.996C139.258 196.86 135.811 199.699 134.055 203.039C131.465 207.966 130.252 214.478 130 220M197 223L198 221C188.303 214.9 176.139 216.999 165 217C159.265 217 153.306 216.651 147.997 219.188C145.582 220.342 142.597 221.896 141.254 224.329C137.861 230.473 139.14 242.705 145.044 246.597C149.329 249.422 154.094 249 159 249L183 249C187.01 249 192.305 249.871 195.985 247.972C203.965 243.853 204.991 227.193 197 223z"/>
<path style="fill:#ffffff; stroke:none;" d="M148 225C152.413 226.06 157.358 224.587 161.961 225.129C166.445 225.657 170.497 228.163 175 228.791C182.732 229.869 189.02 226.778 196 224C188.125 214.858 176.605 222.571 167 223.582C160.184 224.299 154.697 222.162 148 225z"/>
<path style="fill:#010101; stroke:none;" d="M244.425 220.024C235.219 225.238 235.199 241.966 244.005 247.411C247.544 249.6 252.017 249 256 249L278 249C281.484 249 286.623 249.862 289.682 247.821C291.695 246.478 291.884 244.209 291.981 241.996C292.212 236.725 294.122 224.344 289.682 220.603C286.926 218.282 282.333 219 279 219L255 219C251.683 219 247.428 218.323 244.425 220.024z"/>
<path style="fill:#ffffff; stroke:none;" d="M230 303L233 311C236.837 310.069 240.115 310.861 244 310.982C249.086 311.141 255.158 310.001 260 311.843C264.699 313.631 267.736 317.426 271 321C273.034 313.904 268.454 305.012 260.985 302.944C257.762 302.051 254.308 302.962 251 302.251C243.762 300.695 236.341 298.449 230 303M177 307C176.447 311.377 176.003 315.578 176 320C180.327 317.874 182.302 312.892 186.926 311.353C189.815 310.392 193.023 311.107 196.004 310.826C202.912 310.177 211.426 309.943 218 308C207.578 296.6 189.596 306.887 177 307M189 323C192.721 327.861 197.134 323.034 202 323.563C206.72 324.077 211.29 326.146 216 326.791C222.278 327.651 231.947 325.789 238 324C231.65 321.335 225.924 324.958 219.576 325.094C213.263 325.229 207.249 321.709 201 321.388C197.066 321.186 193.049 322.955 189 323M239 322C242.821 323.607 247.979 323.871 252 323C247.746 321.242 243.429 320.706 239 322M288 332C285.89 337.605 282.11 342.395 280 348C276.545 346.004 275.022 343.382 273 340C271.459 342.859 271.795 345.852 271.103 349C269.642 355.647 267.305 363.206 263.077 368.698C259.715 373.065 252.916 373.248 248 373.48C240.469 373.835 235.571 375.003 228 373C219.931 379.152 211.87 377.098 203 374.698C198.995 373.615 194.989 375.614 191 374.483C184.907 372.756 178.335 366.278 176.36 360.285C175.485 357.629 175.796 354.722 175 352C166.74 356.782 162.995 355.811 155 351L154 352C157.045 356.311 161.205 359.182 164.671 363.09C175.026 374.763 182.813 386.266 199 390.505C207.458 392.719 218.279 391 227 391C236.03 391 246.702 392.217 255 387.836C261.037 384.649 264.973 378.366 268.849 373C277.705 360.739 286.543 346.902 290 332L288 332M202 343C204.347 345.28 207.355 346.285 209.815 348.418C213.053 351.227 214.861 355.374 217 359C219.944 357.32 223.527 355.569 227 355.634C229.164 355.675 231.539 357.079 233.682 356.292C236.325 355.322 235.946 351.481 237.603 349.557C240.44 346.263 245.074 345.404 248 342C239.92 340.416 231.15 346.152 223 346.896C215.453 347.585 209.344 343.377 202 343z"/>
</svg>
