<?xml version="1.0" encoding="UTF-8" standalone="no"?>
<!DOCTYPE svg PUBLIC "-//W3C//DTD SVG 1.1//EN" "http://www.w3.org/Graphics/SVG/1.1/DTD/svg11.dtd">
<svg version="1.1" xmlns="http://www.w3.org/2000/svg" xmlns:xlink="http://www.w3.org/1999/xlink" preserveAspectRatio="xMidYMid meet" viewBox="50.00000000000003 19.242424242423994 900 650" width="900" height="650"><defs><path d="M50 19.24L950 19.24L950 669.24L50 669.24L50 19.24Z" id="i6ykAxnJSO"></path><path d="M426.03 295.69L426.03 159.33L573.97 159.33L573.97 295.69L426.03 295.69ZM444.52 278.65L472.26 253.08L490.75 261.6L518.49 227.51L555.48 272.97L555.48 176.38L444.52 176.38L444.52 278.65ZM478.21 195.6L478.86 195.66L479.51 195.75L480.14 195.85L480.77 195.99L481.39 196.14L482 196.31L482.6 196.51L483.18 196.72L483.76 196.96L484.32 197.22L484.87 197.49L485.41 197.79L485.93 198.1L486.44 198.43L486.93 198.78L487.41 199.14L487.88 199.52L488.33 199.92L488.76 200.33L489.17 200.76L489.57 201.2L489.94 201.66L490.3 202.13L490.64 202.61L490.96 203.11L491.26 203.61L491.54 204.13L491.79 204.66L492.03 205.2L492.24 205.75L492.43 206.31L492.59 206.88L492.74 207.46L492.85 208.05L492.94 208.64L493.01 209.24L493.05 209.85L493.06 210.47L493.05 211.08L493.01 211.69L492.94 212.29L492.85 212.89L492.74 213.47L492.59 214.05L492.43 214.62L492.24 215.18L492.03 215.73L491.79 216.27L491.54 216.8L491.26 217.32L490.96 217.83L490.64 218.32L490.3 218.81L489.94 219.28L489.57 219.73L489.17 220.17L488.76 220.6L488.33 221.01L487.88 221.41L487.41 221.79L486.93 222.16L486.44 222.5L485.93 222.83L485.41 223.15L484.87 223.44L484.32 223.72L483.76 223.97L483.18 224.21L482.6 224.43L482 224.62L481.39 224.8L480.77 224.95L480.14 225.08L479.51 225.19L478.86 225.27L478.21 225.33L477.55 225.37L476.88 225.38L476.22 225.37L475.56 225.33L474.9 225.27L474.26 225.19L473.62 225.08L472.99 224.95L472.38 224.8L471.77 224.62L471.17 224.43L470.58 224.21L470.01 223.97L469.45 223.72L468.9 223.44L468.36 223.15L467.84 222.83L467.33 222.5L466.83 222.16L466.35 221.79L465.89 221.41L465.44 221.01L465.01 220.6L464.6 220.17L464.2 219.73L463.82 219.28L463.46 218.81L463.13 218.32L462.81 217.83L462.51 217.32L462.23 216.8L461.97 216.27L461.74 215.73L461.53 215.18L461.34 214.62L461.17 214.05L461.03 213.47L460.91 212.89L460.82 212.29L460.75 211.69L460.71 211.08L460.7 210.47L460.71 209.85L460.75 209.24L460.82 208.64L460.91 208.05L461.03 207.46L461.17 206.88L461.34 206.31L461.53 205.75L461.74 205.2L461.97 204.66L462.23 204.13L462.51 203.61L462.81 203.11L463.13 202.61L463.46 202.13L463.82 201.66L464.2 201.2L464.6 200.76L465.01 200.33L465.44 199.92L465.89 199.52L466.35 199.14L466.83 198.78L467.33 198.43L467.84 198.1L468.36 197.79L468.9 197.49L469.45 197.22L470.01 196.96L470.58 196.72L471.17 196.51L471.77 196.31L472.38 196.14L472.99 195.99L473.62 195.85L474.26 195.75L474.9 195.66L475.56 195.6L476.22 195.56L476.88 195.55L477.55 195.56L478.21 195.6Z" id="i5ZCp3B0m"></path><path d="M215.15 80.54L784.85 80.54L784.85 122.97L215.15 122.97L215.15 80.54Z" id="b1fVmR4qIi"></path><path d="M215.15 349.2L493.94 349.2L493.94 364.35L215.15 364.35L215.15 349.2Z" id="l3vDeZtvPJ"></path><path d="M215.15 382.12L493.94 382.12L493.94 397.27L215.15 397.27L215.15 382.12Z" id="b1KMIsb4BH"></path><path d="M215.15 416.34L493.94 416.34L493.94 431.49L215.15 431.49L215.15 416.34Z" id="cO0DeiKx1"></path><path d="M215.15 449.26L493.94 449.26L493.94 464.41L215.15 464.41L215.15 449.26Z" id="c4uX1WLui"></path><path d="M215.15 478.46L493.94 478.46L493.94 493.61L215.15 493.61L215.15 478.46Z" id="cyaO53F12"></path><path d="M215.15 511.38L493.94 511.38L493.94 526.53L215.15 526.53L215.15 511.38Z" id="c2wbmBnMOi"></path><path d="M215.15 545.6L493.94 545.6L493.94 560.75L215.15 560.75L215.15 545.6Z" id="d47456A1ob"></path><path d="M215.15 578.52L493.94 578.52L493.94 593.67L215.15 593.67L215.15 578.52Z" id="abmT5RaVz"></path><path d="M506.06 349.2L784.85 349.2L784.85 364.35L506.06 364.35L506.06 349.2Z" id="f31iVZgMX"></path><path d="M506.06 382.12L784.85 382.12L784.85 397.27L506.06 397.27L506.06 382.12Z" id="f3J5BVMu2"></path><path d="M506.06 416.34L784.85 416.34L784.85 431.49L506.06 431.49L506.06 416.34Z" id="aDNH5Wp3d"></path><path d="M506.06 449.26L784.85 449.26L784.85 464.41L506.06 464.41L506.06 449.26Z" id="b3Q0gB4q9G"></path><path d="M506.06 478.46L784.85 478.46L784.85 493.61L506.06 493.61L506.06 478.46Z" id="cdQinUV9F"></path><path d="M506.06 511.38L784.85 511.38L784.85 526.53L506.06 526.53L506.06 511.38Z" id="g9jSJRXGB"></path><path d="M506.06 545.6L784.85 545.6L784.85 560.75L506.06 560.75L506.06 545.6Z" id="aQODaK1zO"></path><path d="M506.06 578.52L784.85 578.52L784.85 593.67L506.06 593.67L506.06 578.52Z" id="b4NMpB6Zt"></path></defs><g><g><g><use xlink:href="#i6ykAxnJSO" opacity="1" fill="#343a40" fill-opacity="1"></use></g><g><g><use xlink:href="#i5ZCp3B0m" opacity="1" fill="#f5f5f5" fill-opacity="1"></use></g><g><use xlink:href="#b1fVmR4qIi" opacity="1" fill="#ffffff" fill-opacity="1"></use></g><g><use xlink:href="#l3vDeZtvPJ" opacity="1" fill="#ffffff" fill-opacity="1"></use></g><g><use xlink:href="#b1KMIsb4BH" opacity="1" fill="#ffffff" fill-opacity="1"></use></g><g><use xlink:href="#cO0DeiKx1" opacity="1" fill="#ffffff" fill-opacity="1"></use></g><g><use xlink:href="#c4uX1WLui" opacity="1" fill="#ffffff" fill-opacity="1"></use></g><g><use xlink:href="#cyaO53F12" opacity="1" fill="#ffffff" fill-opacity="1"></use></g><g><use xlink:href="#c2wbmBnMOi" opacity="1" fill="#ffffff" fill-opacity="1"></use></g><g><use xlink:href="#d47456A1ob" opacity="1" fill="#ffffff" fill-opacity="1"></use></g><g><use xlink:href="#abmT5RaVz" opacity="1" fill="#ffffff" fill-opacity="1"></use></g><g><use xlink:href="#f31iVZgMX" opacity="1" fill="#ffffff" fill-opacity="1"></use></g><g><use xlink:href="#f3J5BVMu2" opacity="1" fill="#ffffff" fill-opacity="1"></use></g><g><use xlink:href="#aDNH5Wp3d" opacity="1" fill="#ffffff" fill-opacity="1"></use></g><g><use xlink:href="#b3Q0gB4q9G" opacity="1" fill="#ffffff" fill-opacity="1"></use></g><g><use xlink:href="#cdQinUV9F" opacity="1" fill="#ffffff" fill-opacity="1"></use></g><g><use xlink:href="#g9jSJRXGB" opacity="1" fill="#ffffff" fill-opacity="1"></use></g><g><use xlink:href="#aQODaK1zO" opacity="1" fill="#ffffff" fill-opacity="1"></use></g><g><use xlink:href="#b4NMpB6Zt" opacity="1" fill="#ffffff" fill-opacity="1"></use></g></g></g></g></svg>